# xmcd
#
# Track frame offsets: 
#        150
#        22691
#        39393
#        60578
#        76124
#        89880
#        102479
#        122188
#        135854
#        151401
#        172649
#        196287
#
# Disc length: 3090 seconds
#
# Revision: 0
# Processed by: cddbd v1.4PL0 Copyright (c) Steve Scherf et al.
# Submitted via: ExactAudioCopy v0.90a11
#
DISCID=890c100c
DTITLE=Don Wise - On The Verge Of Survival
DYEAR=1900
DGENRE=
TTITLE0=That Same Mistake Again
TTITLE1=Hard To Please Woman
TTITLE2=Deep In The Heart Of Texas
TTITLE3=Sanc-T-Flied
TTITLE4=After The Lights Go Down Low
TTITLE5=Blown By the Breeze
TTITLE6=No One
TTITLE7=Pepper In Your Pocket
TTITLE8=Just Friends
TTITLE9=Back In The Back
TTITLE10=Mutiny
TTITLE11=Deep(er) In The Heart Of Texas
EXTD=
EXTT0=
EXTT1=
EXTT2=
EXTT3=
EXTT4=
EXTT5=
EXTT6=
EXTT7=
EXTT8=
EXTT9=
EXTT10=
EXTT11=
PLAYORDER=
